<?xml version="1.0" encoding="UTF-8" standalone="no"?>
<svg
   xmlns:dc="http://purl.org/dc/elements/1.1/"
   xmlns:cc="http://creativecommons.org/ns#"
   xmlns:rdf="http://www.w3.org/1999/02/22-rdf-syntax-ns#"
   xmlns:svg="http://www.w3.org/2000/svg"
   xmlns="http://www.w3.org/2000/svg"
   version="1.1"
   id="svg2"
   viewBox="0 0 48 48.000001"
   height="48"
   width="48">
  <defs
     id="defs4" />
  <metadata
     id="metadata7">
    <rdf:RDF>
      <cc:Work
         rdf:about="">
        <dc:format>image/svg+xml</dc:format>
        <dc:type
           rdf:resource="http://purl.org/dc/dcmitype/StillImage" />
        <dc:title></dc:title>
      </cc:Work>
    </rdf:RDF>
  </metadata>
  <g
     transform="translate(0,-1004.3622)"
     id="layer1">
    <g
       transform="matrix(2.9985406,0,0,2.9985406,-2.1249812,-2014.5544)"
       id="g4154">
      <path
         d="m 3.6666718,1011.8443 0.042,2.916 c 0,0 1.083,0.104 1.104,0.042 0.021,-0.062 -0.083,-3.562 -0.083,-3.562 l -1.063,0.604 z"
         id="path10" />
      <path
         d="m 5.5836718,1011.0313 c 0,0 -0.083,3.729 -0.021,3.812 0.062,0.083 1.3330004,0.042 1.3330004,0.042 0,0 0.042,-4.104 0,-4.042 -0.042,0.062 -1.3120004,0.188 -1.3120004,0.188 z"
         id="path12" />
      <polygon
         transform="translate(0.70867182,1006.8023)"
         points="9.521,8.229 9.5,4.083 8.229,4.104 8.208,8.188 "
         id="polygon14" />
      <path
         d="m 11.124672,1010.8233 c 0,0 0.021,4.271 0.104,4.292 0.084,0.021 1.418,0.042 1.418,0.042 l -0.084,-4.417 c 0,0 -1.397,0.145 -1.438,0.083 z"
         id="path16" />
      <path
         d="m 13.188672,1011.4693 c -0.021,0.063 -0.043,3.521 -0.043,3.521 l 1.293,-0.063 0.166,-2.958 -1.396,-0.584"
         id="path18" />
      <path
         style="fill:#1368bc"
         d="m 0.70867182,1013.1353 c 0,0 3.79099998,-7 7.75000038,-4.375 0,0 0.542,0.25 1.292,-0.333 0,0 1.5419998,-1.458 4.2499998,1.333 0,0 2.708,2.625 2.708,3 0,0 0.25,1.167 -2.083,-0.208 0,0 -1.001,-0.917 -2.667,-1.292 0,0 -2.3329998,0.5 -5.5420002,-0.167 0,0 -0.792,-0.25 -3.25,1.292 0,0 -2.45799998,1.875 -2.45799998,0.917"
         id="path21" />
      <path
         style="fill:#1368bc"
         d="m 2.2506718,1017.0103 c 0,0 1.499,4.416 6.3330004,4.375 0,0 4.9589998,0.71 6.5419998,-4.166 0,0 1.583,-2.958 1.583,-3.083 0,0 -0.042,-0.917 -1.75,0.042 0,0 -3.125,2.375 -4.458,2.75 0,0 -2.8539998,0.172 -3.9640002,-0.172 0,0 -1.786,-0.162 -3.12,-1.662 0,0 -1.333,-1.625 -2.70799998,-1.292 0,0 0.042,0.959 1.04199998,2.417 0,0 0.25,0.582 0.5,0.791 z"
         id="path23" />
    </g>
  </g>
</svg>
